Coordinates
version=1
nRows=15
nColumns=42
inDegrees=yes

Units are S.I. units (second, meters, Newtons, ...)
If the header above contains a line with 'inDegrees', this indicates whether rotational values are in degrees (yes) or radians (no).

endheader
time	pelvis_tilt	pelvis_list	pelvis_rotation	pelvis_tx	pelvis_ty	pelvis_tz	hip_flexion_r	hip_adduction_r	hip_rotation_r	knee_angle_r	knee_adduction_r	knee_angle_r_beta	ankle_angle_r	subtalar_angle_r	mtp_angle_r	hip_flexion_l	hip_adduction_l	hip_rotation_l	knee_angle_l	knee_adduction_l	knee_angle_l_beta	ankle_angle_l	subtalar_angle_l	mtp_angle_l	lumbar_extension	lumbar_bending	lumbar_rotation	arm_flex_r	arm_add_r	arm_rot_r	elbow_flex_r	pro_sup_r	wrist_flex_r	wrist_dev_r	arm_flex_l	arm_add_l	arm_rot_l	elbow_flex_l	pro_sup_l	wrist_flex_l	wrist_dev_l
      1.44000000	     13.75066122	     -1.64091492	     -1.64228221	      0.42949997	      0.86749062	     -0.15136091	     -8.19122482	      5.03894225	    -17.51205438	     16.92751584	     -2.47208544	      0.29544089	     19.78146145	     -3.09256645	     -7.50829512	      2.17806356	     -4.14965314	     -9.12743089	     60.85350245	     -4.09499637	      1.06209398	     12.38065458	    -18.77905106	     -7.50829512	    -27.78952741	      0.11452395	      4.44357155	     13.74550270	     -7.75866823	     -1.81239533	     35.79077877	     90.00000001	      0.00000000	      0.00000000	      4.77479813	     -5.55759230	     -8.67811156	     27.64012424	     90.00000001	      0.00000000	      0.00000000
      1.45000000	     13.69347039	     -1.54432470	     -1.99470733	      0.43945117	      0.86743397	     -0.15067605	     -9.09860554	      4.89769806	    -17.38358745	     16.46042720	     -2.41560252	      0.28728865	     20.24176096	     -2.72186970	     -7.50808209	      3.55257935	     -3.94287002	     -8.53799204	     59.39865073	     -3.34616296	      1.03670203	     12.84691640	    -18.70654842	     -7.50808209	    -27.76003421	     -0.10831567	      4.74656855	     14.82331690	     -7.87940233	     -1.70085460	     36.50678735	     90.00000001	      0.00000000	      0.00000000	      3.66927235	     -5.34380639	     -8.88924196	     27.40544575	     90.00000001	      0.00000000	      0.00000000
      1.46000000	     13.60371406	     -1.51534875	     -2.33538658	      0.44944928	      0.86712888	     -0.15001924	     -9.91524495	      4.83771991	    -17.39961594	     16.09246824	     -2.46350283	      0.28086656	     20.62194226	     -2.35469789	     -7.50791228	      4.87309422	     -3.85525489	     -7.93440553	     57.65603403	     -2.51348707	      1.00628763	     13.14351151	    -18.62629289	     -7.50791228	    -27.66734022	     -0.26205671	      5.08489468	     15.80985008	     -8.04559680	     -1.54519098	     37.29450043	     90.00000001	      0.00000000	      0.00000000	      2.57142032	     -5.09483198	     -9.06182963	     27.22412310	     90.00000001	      0.00000000	      0.00000000
      1.47000000	     13.64041345	     -1.49994335	     -2.66766479	      0.45952848	      0.86677811	     -0.14949843	    -10.93774985	      4.72595403	    -17.34634569	     15.63429223	     -2.34411657	      0.27286988	     21.23100150	     -1.75673270	     -7.50769316	      5.89540715	     -3.74787843	     -6.79463046	     55.57565610	     -1.24532875	      0.96997818	     13.42854564	    -18.60781704	     -7.50769316	    -27.73582472	     -0.37517637	      5.40830908	     16.69430524	     -8.25653042	     -1.17923693	     38.32806711	     90.00000001	      0.00000000	      0.00000000	      1.46140205	     -4.81012642	     -9.36116156	     27.11378562	     90.00000001	      0.00000000	      0.00000000
      1.48000000	     13.60953497	     -1.52974031	     -2.99306120	      0.46965338	      0.86614841	     -0.14899144	    -11.81587788	      4.67413440	    -17.44848761	     15.30433652	     -2.34950554	      0.26711106	     21.69936655	     -1.14826031	     -7.50748308	      6.91617903	     -3.74074899	     -6.00053043	     53.22550203	     -0.23804549	      0.92896026	     13.57495568	    -18.55672931	     -7.50748308	    -27.70852364	     -0.44381064	      5.72313426	     17.54906477	     -8.48340934	     -0.74896320	     39.36748472	     90.00000001	      0.00000000	      0.00000000	      0.35611414	     -4.52495779	     -9.65408778	     27.03007753	     90.00000001	      0.00000000	      0.00000000
      1.49000000	     13.53586321	     -1.61177676	     -3.31854229	      0.47980610	      0.86524457	     -0.14848825	    -12.59937636	      4.70168599	    -17.57063344	     15.07603080	     -2.44875220	      0.26312638	     22.07212640	     -0.64436737	     -7.50733055	      7.92349396	     -3.82686498	     -5.59272426	     50.68609294	      0.47231466	      0.88463921	     13.64011996	    -18.47158196	     -7.50733055	    -27.64134122	     -0.46840299	      6.04291464	     18.41009260	     -8.67003293	     -0.41241354	     40.26179917	     90.00000001	      0.00000000	      0.00000000	     -0.71091877	     -4.26005825	     -9.86304373	     26.91926966	     90.00000001	      0.00000000	      0.00000000
      1.50000000	     13.66866132	     -1.65674743	     -3.60369248	      0.49013165	      0.86444876	     -0.14820921	    -13.71673359	      4.56625477	    -17.65601651	     14.72073114	     -2.26663660	      0.25692523	     22.71482620	      0.17484879	     -7.50713363	      8.49615755	     -3.83426637	     -4.79740434	     47.75847804	      1.43972503	      0.83354269	     13.62689761	    -18.45199621	     -7.50713363	    -27.77009615	     -0.49813803	      6.31840056	     19.16620361	     -8.93928718	      0.21041658	     41.43482575	     90.00000001	      0.00000000	      0.00000000	     -1.77694924	     -3.93880599	    -10.21889289	     26.88806395	     90.00000001	      0.00000000	      0.00000000
      1.51000000	     13.66450553	     -1.79959369	     -3.86871556	      0.50045518	      0.86323510	     -0.14787531	    -14.49431937	      4.55618102	    -18.38534948	     14.69313253	     -2.36995113	      0.25644354	     23.47304044	      2.01621860	     -7.50642803	      9.20499355	     -4.01851108	     -4.43394526	     44.78242289	      2.06722064	      0.78160073	     13.53989970	    -18.41658556	     -7.50642803	    -27.77204181	     -0.43059803	      6.57652514	     19.58289597	     -9.69910697	      2.47729033	     43.34558086	     90.00000001	      0.00000000	      0.00000000	     -2.79339132	     -3.45674711	    -11.62931993	     26.99869313	     90.00000001	      0.00000000	      0.00000000
      1.52000000	     13.73273459	     -1.90165729	     -4.15012897	      0.51085624	      0.86202628	     -0.14762970	    -15.49192058	      4.51902615	    -18.37098439	     14.44450655	     -2.31495448	      0.25210420	     23.97390452	      2.42019765	     -7.50623111	      9.70074460	     -4.13309975	     -4.47518315	     41.54720076	      2.36189925	      0.72513545	     13.39639176	    -18.29843843	     -7.50623111	    -27.82347135	     -0.40897001	      6.81723673	     20.44644896	     -9.78584331	      2.67642791	     44.01955317	     90.00000001	      0.00000000	      0.00000000	     -3.75166169	     -3.18735796	    -11.89128102	     26.79075484	     90.00000001	      0.00000000	      0.00000000
      1.53000000	     13.77127781	     -2.02054300	     -4.42863687	      0.52139748	      0.86065000	     -0.14738412	    -16.44204540	      4.49414702	    -18.36319703	     14.25605787	     -2.27759007	      0.24881515	     24.44075710	      2.79225956	     -7.50607550	     10.12858493	     -4.29224379	     -4.78057271	     38.21231122	      2.48330654	      0.66693065	     13.26188108	    -18.09263520	     -7.50607550	    -27.83448000	     -0.38080947	      7.05525875	     21.21250455	     -9.89488075	      2.92378648	     44.80403634	     90.00000001	      0.00000000	      0.00000000	     -4.70273259	     -2.89885543	    -12.13088544	     26.65281735	     90.00000001	      0.00000000	      0.00000000
      1.54000000	     13.84191109	     -2.17701297	     -4.65560378	      0.53202558	      0.85918284	     -0.14722488	    -17.45996620	      4.50774031	    -18.35783250	     14.01967822	     -2.21207871	      0.24468955	     24.98211971	      3.24763551	     -7.50589065	     10.42448488	     -4.48678655	     -5.12501012	     34.78808107	      2.53634910	      0.60716656	     13.01654961	    -17.87923946	     -7.50589065	    -27.88094694	     -0.30120485	      7.25533937	     21.84166212	    -10.06061624	      3.36943764	     45.74462722	     90.00000001	      0.00000000	      0.00000000	     -5.62551761	     -2.58825040	    -12.50430713	     26.54809487	     90.00000001	      0.00000000	      0.00000000
      1.55000000	     13.86508568	     -2.33135321	     -4.88348489	      0.54274727	      0.85754397	     -0.14712697	    -18.39106964	      4.54244882	    -18.37865984	     13.84851788	     -2.26069472	      0.24170223	     25.49964410	      3.74513843	     -7.50562427	     10.68724573	     -4.68990560	     -5.69950164	     31.33661887	      2.46774796	      0.54692718	     12.76820438	    -17.57036260	     -7.50562427	    -27.86270858	     -0.21431488	      7.43916293	     22.41241267	    -10.28359898	      4.08969680	     46.80670606	     90.00000001	      0.00000000	      0.00000000	     -6.49006392	     -2.26471624	    -13.11365989	     26.42254936	     90.00000001	      0.00000000	      0.00000000
      1.56000000	     13.86372997	     -2.45377683	     -5.14092146	      0.55358550	      0.85581981	     -0.14713623	    -19.24047623	      4.46175735	    -18.37439742	     13.85375713	     -2.21789033	      0.24179368	     25.91670653	      3.96585509	     -7.50547204	     10.91282937	     -4.86229795	     -6.72893394	     27.92757929	      2.22247512	      0.48742821	     12.64006511	    -16.87523979	     -7.50547204	    -27.80301361	     -0.16272619	      7.64162793	     23.00131256	    -10.38026186	      4.41073495	     47.46021211	     90.00000001	      0.00000000	      0.00000000	     -7.30196261	     -1.94809097	    -13.41542913	     26.23820881	     90.00000001	      0.00000000	      0.00000000
      1.57000000	     13.87226788	     -2.60332790	     -5.37256779	      0.56448331	      0.85405774	     -0.14715713	    -20.12737410	      4.46397122	    -18.34478247	     13.77243774	     -2.27097986	      0.24037438	     26.37524389	      4.24396509	     -7.50528651	     11.04189933	     -5.07195781	     -7.75130220	     24.57988338	      2.03311158	      0.42899989	     12.47935041	    -15.99390341	     -7.50528651	    -27.75864077	     -0.09885476	      7.78988244	     23.52328967	    -10.49398359	      4.89924328	     48.23531121	     90.00000001	      0.00000000	      0.00000000	     -8.05487434	     -1.65554203	    -13.88587364	     25.99807920	     90.00000001	      0.00000000	      0.00000000
      1.58000000	     13.83935479	     -2.74114722	     -5.61557610	      0.57546366	      0.85224003	     -0.14728038	    -20.90997274	      4.40986280	    -18.28233142	     13.84828788	     -2.30020497	      0.24169822	     26.74490970	      4.41691537	     -7.50512534	     11.16370723	     -5.28665940	     -8.99960351	     21.39153206	      1.86975086	      0.37335267	     12.34324791	    -14.74909857	     -7.50512534	    -27.65776420	     -0.03005836	      7.96408699	     23.97867336	    -10.58280975	      5.29374955	     48.87701707	     90.00000001	      0.00000000	      0.00000000	     -8.74204891	     -1.33552803	    -14.30597563	     25.74198122	     90.00000001	      0.00000000	      0.00000000
